PathFileType	4	(X/Y/Z)	C:/Users/opensim2020/Desktop/walking_exp_matlab/subject03_walking09_straight_03.trc	
DataRate	CameraRate	NumFrames	NumMarkers	Units	OrigDataRate	OrigDataStartFrame	OrigNumFrames	
100.00	100.00	8	47	mm	100.00	3035	383	
Frame#	Time	LFHD			RFHD			LBHD			RBHD			C7			T10			CLAV			STRN			RBAK			LSHO			LUPA			LELB			LFRM			LWRA			LWRB			LFIN			RSHO			RUPA			RELB			RFRM			RWRA			RWRB			RFIN			LASI			RASI			LPSI			RPSI			LTHI			LKNE			LTIB			LANK			LHEE			LTOE			RTHI			RKNE			RTIB			RANK			RHEE			RTOE			*39			*40			*41			*42			*43			*44			*45			*46			
		X1	Y1	Z1	X2	Y2	Z2	X3	Y3	Z3	X4	Y4	Z4	X5	Y5	Z5	X6	Y6	Z6	X7	Y7	Z7	X8	Y8	Z8	X9	Y9	Z9	X10	Y10	Z10	X11	Y11	Z11	X12	Y12	Z12	X13	Y13	Z13	X14	Y14	Z14	X15	Y15	Z15	X16	Y16	Z16	X17	Y17	Z17	X18	Y18	Z18	X19	Y19	Z19	X20	Y20	Z20	X21	Y21	Z21	X22	Y22	Z22	X23	Y23	Z23	X24	Y24	Z24	X25	Y25	Z25	X26	Y26	Z26	X27	Y27	Z27	X28	Y28	Z28	X29	Y29	Z29	X30	Y30	Z30	X31	Y31	Z31	X32	Y32	Z32	X33	Y33	Z33	X34	Y34	Z34	X35	Y35	Z35	X36	Y36	Z36	X37	Y37	Z37	X38	Y38	Z38	X39	Y39	Z39	X40	Y40	Z40	X41	Y41	Z41	X42	Y42	Z42	X43	Y43	Z43	X44	Y44	Z44	X45	Y45	Z45	X46	Y46	Z46	X47	Y47	Z47	

240	2.390	-1033.30042	759.01495	1620.01233	-903.68762	730.16785	1612.40723	-1060.20520	633.02570	1579.15320	-931.86346	609.81348	1571.30774	-1014.30115	590.18628	1411.15125	-1017.98047	570.27698	1095.43616	-1004.93390	713.75708	1338.26648	-1012.86987	765.69666	1176.56885	-927.32678	537.63214	1229.40393	-1161.78748	682.90106	1377.48401	-1228.57825	702.49725	1180.47095	-1232.84277	724.85345	1058.31299	-1219.96533	770.84918	936.62677	-1178.76123	804.46289	825.77832	-1232.39880	788.31018	823.88275	-1213.30225	813.66284	744.25629	-848.27063	654.42480	1355.57947	-783.89789	653.49500	1130.21863	-772.73145	669.24280	1018.50574	-772.27344	685.29517	882.16443	-806.12726	719.04846	787.18323	-765.63922	683.36200	782.19666	-774.36938	704.90497	710.33270	-1127.66614	738.55292	928.27509	-889.87439	740.62079	940.87927	-1076.77893	577.97638	958.31824	-928.07617	579.45508	971.31769	-1166.56665	650.04510	626.31909	-1139.82983	624.71991	448.86517	-1135.29187	476.17984	311.34332	-1090.63379	343.39139	150.46249	-1052.04370	293.49789	151.73683	-1052.39258	428.78690	28.52694	-852.98853	711.07184	646.47375	-894.15698	751.78271	470.83759	-893.69031	733.15057	282.28165	-946.10089	737.76489	67.25798	-997.95190	694.53345	35.65193	-960.63519	879.96179	33.17600	-996.01324	667.86884	1677.54663																					 
241	2.400	-1032.74023	766.17572	1620.55603	-903.16730	737.56744	1612.81165	-1059.44531	640.22321	1579.54968	-931.23389	617.14709	1571.62122	-1013.41699	597.67078	1411.40259	-1016.28467	578.18445	1095.64148	-1004.43921	721.41742	1338.69006	-1012.51685	773.47949	1177.02856	-925.97589	545.81244	1229.43530	-1161.18445	690.11926	1377.88220	-1228.00977	709.33405	1180.86755	-1232.51660	730.69684	1058.54541	-1220.52026	775.56488	936.34741	-1179.97717	808.41376	825.02075	-1233.48535	791.77246	823.44879	-1214.57813	815.52948	742.97546	-847.60583	662.73242	1355.93982	-782.75110	662.47430	1130.72400	-771.50635	678.49799	1019.03387	-770.92889	695.25623	882.91241	-804.98126	729.44092	788.01727	-764.46417	693.92853	782.80621	-773.20929	715.93585	711.14728	-1127.14905	745.83539	928.85052	-889.44415	749.04126	940.80981	-1075.47266	585.13147	958.59601	-926.73621	587.78625	971.90137	-1167.25513	661.29895	625.96167	-1141.81738	639.36108	447.87891	-1136.55322	489.06052	313.08945	-1091.81714	353.01016	155.27408	-1053.04968	303.40991	159.60019	-1053.08191	431.16483	29.55444	-851.86182	716.54254	646.76550	-893.46289	756.89154	470.65927	-893.33704	736.40363	282.26617	-946.13281	737.76727	67.20700	-997.90100	694.55170	35.74350	-960.60333	880.05420	33.10435	-995.16858	675.07117	1677.95740																					 
242	2.410	-1032.26587	773.29425	1620.97876	-902.57568	744.83759	1613.13599	-1058.82654	647.38757	1579.78003	-930.51239	624.50476	1571.73779	-1012.44086	605.10266	1411.51538	-1014.62488	585.91785	1095.79248	-1003.97620	728.92603	1338.96216	-1012.23364	781.12488	1177.31445	-924.51666	553.90442	1229.44763	-1160.62146	697.08832	1378.06604	-1227.49731	715.95715	1181.02502	-1232.32349	736.54657	1058.56689	-1221.10291	780.36407	935.96191	-1181.26233	812.47076	824.14148	-1234.69604	795.41125	822.87708	-1215.98181	817.66443	741.79407	-846.94281	670.95837	1356.16479	-781.56396	671.50616	1131.10876	-770.23218	687.94965	1019.47833	-769.65607	705.45770	883.45099	-803.80609	740.00714	788.78455	-763.12097	704.69818	783.33405	-771.87323	727.11353	711.91339	-1126.57593	752.85022	929.22229	-888.95911	757.23499	940.76953	-1074.23547	592.37750	958.40887	-925.60645	595.76709	972.32977	-1167.96484	672.29749	625.64117	-1143.48425	654.14618	446.93933	-1137.79407	502.51038	314.53195	-1092.84668	363.12637	160.03641	-1054.62549	313.66519	167.42349	-1053.33008	433.81305	30.93939	-850.67023	722.83093	646.93585	-892.68066	761.86975	470.51819	-893.00964	739.52277	282.23013	-946.18085	737.84467	67.17989	-997.81573	694.53577	35.78872	-960.58649	880.14746	33.04521	-994.58447	682.15015	1678.20789																					 
243	2.420	-1031.87268	780.36212	1621.32922	-902.14459	752.22430	1613.41882	-1058.20728	654.48242	1579.83374	-929.80945	631.88245	1571.74170	-1011.55951	612.54651	1411.66235	-1013.13928	593.45453	1095.87048	-1003.56824	736.38623	1339.08716	-1012.01587	788.62769	1177.42029	-922.95947	561.82684	1229.51221	-1160.07532	703.83740	1378.10339	-1227.03125	722.40021	1181.03833	-1232.30396	742.42310	1058.57300	-1221.82813	785.18237	935.50409	-1182.75977	816.64996	823.19238	-1236.12207	799.15588	822.38580	-1217.49487	820.10400	740.61737	-846.26697	679.13190	1356.25500	-780.44244	680.62689	1131.34167	-768.99353	697.52130	1019.80658	-768.38928	715.78210	883.87439	-802.69177	750.77802	789.48120	-761.75616	715.64020	783.78864	-770.62592	738.55225	712.57648	-1126.12488	759.75714	929.26337	-888.50104	765.22656	940.71558	-1073.23621	599.39276	958.10242	-924.61615	603.50177	972.62988	-1168.86865	683.04944	625.03662	-1145.12244	669.18530	446.02972	-1139.20081	516.48682	315.84552	-1094.13000	373.77444	165.54733	-1056.16821	324.02921	175.23720	-1054.24097	438.83801	33.91913	-849.60455	729.27716	647.22375	-891.92725	766.68524	470.33209	-892.70361	742.42822	282.11987	-946.26062	737.89032	67.21687	-997.75757	694.54633	35.85355	-960.56494	880.21381	33.00581	-993.98840	689.11981	1678.35107																					 
244	2.430	-1031.51648	787.39746	1621.60901	-901.75531	759.44067	1613.67004	-1057.64001	661.58136	1579.79333	-929.21857	639.21106	1571.63147	-1010.64050	619.91315	1411.69263	-1011.87018	600.84265	1095.92273	-1003.26685	743.76428	1339.16272	-1011.88959	795.87183	1177.38660	-921.35327	569.69238	1229.59265	-1159.69727	710.42249	1378.02954	-1226.68152	728.53320	1180.88696	-1232.34937	748.21918	1058.42285	-1222.63867	789.93829	934.82483	-1184.27930	820.90997	822.28162	-1237.40881	803.02637	821.65375	-1219.15979	822.65686	739.38275	-845.66516	687.34448	1356.27649	-779.32813	689.79510	1131.50244	-767.69727	707.12891	1020.02631	-767.16577	726.30945	884.25305	-801.37830	762.13220	790.26807	-760.29803	726.79333	784.18976	-769.26892	750.31439	713.13782	-1125.86023	766.56335	928.98871	-887.99426	772.92249	940.80457	-1072.43506	606.35016	957.57446	-923.77661	610.92255	972.88281	-1169.74402	693.69019	624.33679	-1146.41760	684.32880	444.98587	-1140.52563	530.80499	317.12131	-1094.90369	384.45956	171.04056	-1056.88220	335.25308	182.64928	-1056.51990	446.15665	37.23429	-848.90692	736.19318	647.29517	-891.19226	771.24445	470.18729	-892.45374	745.13782	282.07730	-946.39508	737.94305	67.26704	-997.73914	694.56934	35.97640	-960.53906	880.28693	32.92292	-993.54718	696.00153	1678.39600																					 
245	2.440	-1031.26868	794.35419	1621.85669	-901.43225	766.66101	1613.81689	-1057.05432	668.57037	1579.65649	-928.60406	646.53259	1571.49683	-1009.75317	627.29486	1411.69275	-1010.80383	608.01123	1095.93518	-1002.99152	751.01849	1339.14172	-1011.83234	803.02197	1177.30322	-919.80896	577.35803	1229.69055	-1159.31848	716.78973	1377.83655	-1226.44238	734.40558	1180.59741	-1232.49536	753.82471	1058.20251	-1223.45007	794.91382	934.40503	-1185.88965	825.24872	821.40375	-1238.88831	807.05817	821.07697	-1220.96985	825.77197	738.45868	-845.06567	695.51617	1356.19226	-778.27246	698.97180	1131.56531	-766.46887	716.97302	1020.25897	-765.86786	736.96240	884.55963	-800.35339	773.01758	790.71252	-759.08795	738.35144	784.55249	-767.93427	762.18848	713.73822	-1125.39832	773.15546	928.68536	-887.43835	780.44855	940.98779	-1071.65564	613.16840	956.90808	-922.97247	618.17413	973.06293	-1170.26355	704.38959	623.69135	-1147.62207	699.69928	444.30655	-1141.55261	545.27856	318.72760	-1095.17944	395.51358	176.54758	-1056.47424	346.76697	188.61400	-1060.10242	455.68369	40.90178	-848.28131	741.90009	647.52734	-890.54138	775.87964	470.09140	-892.22180	747.87384	281.99088	-946.52161	737.99329	67.33261	-997.76874	694.59265	36.07477	-960.57031	880.37207	32.86308	-993.02838	702.86664	1678.38696																					 
246	2.450	-1031.01453	801.33801	1622.01794	-901.11609	773.88605	1613.95654	-1056.55786	675.58783	1579.49243	-928.06055	653.86292	1571.31006	-1008.74768	634.39624	1411.75562	-1009.81354	615.02179	1095.96729	-1002.80884	758.19592	1339.07861	-1011.86932	810.00836	1177.16821	-918.42737	584.87579	1229.85974	-1159.07068	722.97742	1377.62720	-1226.38916	739.89746	1180.28137	-1232.77600	759.21899	1057.87488	-1224.33215	799.66779	933.77161	-1187.35156	829.21692	820.37714	-1240.49548	811.29724	820.64069	-1222.89453	829.18860	737.62256	-844.60638	703.75574	1356.06360	-777.26440	708.20337	1131.64026	-765.27582	726.82111	1020.38104	-764.74725	747.78271	884.91766	-799.51135	783.69208	791.18060	-757.56152	750.08453	784.95459	-766.61090	774.31201	714.36584	-1124.85156	779.74957	928.48029	-886.83588	787.69135	941.26947	-1070.95435	619.89404	956.33563	-922.25836	625.21722	973.12817	-1170.58301	715.25128	623.39429	-1148.86353	715.16821	443.84659	-1141.97180	559.74274	320.74939	-1095.22498	407.43542	181.62073	-1055.48364	359.05374	193.40337	-1064.25464	466.99185	44.50332	-848.01514	747.98248	647.58215	-890.12372	780.59570	469.93713	-892.15576	750.62500	281.81354	-946.72327	738.16345	67.51398	-997.81384	694.64642	36.21131	-960.59302	880.44922	32.79729	-992.68768	709.72272	1678.37988																					 
247	2.460	-1030.81299	808.26825	1622.20935	-900.86194	781.22906	1614.09546	-1056.07495	682.57123	1579.33948	-927.56927	661.14825	1571.12292	-1007.84210	641.52344	1411.82336	-1008.87946	621.87939	1096.04285	-1002.68921	765.30157	1339.04602	-1011.91394	816.85065	1177.03088	-917.09387	592.27704	1230.04846	-1158.83496	728.92627	1377.41577	-1226.45361	745.00903	1179.95142	-1233.09741	764.41211	1057.56335	-1225.35327	804.45453	933.39258	-1188.96399	833.47394	819.59497	-1242.08240	815.41711	820.20166	-1225.02185	832.97888	737.04895	-844.11188	711.80981	1355.97620	-776.33350	717.51825	1131.72876	-764.12482	736.81372	1020.60175	-763.55981	758.67529	885.28143	-798.61725	794.66791	791.72205	-756.18030	761.82678	785.40674	-765.21552	786.52118	715.04407	-1124.44177	786.29156	928.25671	-886.24017	794.80933	941.58295	-1070.74573	626.83289	955.37402	-921.51501	632.08197	973.08435	-1170.98682	725.98767	623.74878	-1150.08252	730.74554	444.04016	-1142.16724	574.17249	322.95728	-1095.25928	420.35944	185.77954	-1054.58484	372.23175	197.19720	-1068.67676	479.73175	47.98306	-848.23358	754.78418	647.59320	-889.91742	785.62341	469.68405	-892.17822	753.68774	281.71194	-946.88367	738.39844	67.60775	-997.83105	694.70685	36.38686	-960.67499	880.59094	32.75718	-992.26050	716.62457	1678.30945																					 
